<svg width="28" height="16" viewBox="0 0 28 16" fill="none" xmlns="http://www.w3.org/2000/svg">
<path fill-rule="evenodd" clip-rule="evenodd" d="M0 8C0 7.44772 0.447715 7 1 7H26C26.5523 7 27 7.44772 27 8C27 8.55228 26.5523 9 26 9H1C0.447715 9 0 8.55228 0 8Z" fill="#D6680F"/>
<path fill-rule="evenodd" clip-rule="evenodd" d="M19.2929 0.292893C19.6834 -0.0976311 20.3166 -0.0976311 20.7071 0.292893L27.7071 7.29289C28.0976 7.68342 28.0976 8.31658 27.7071 8.70711L20.7071 15.7071C20.3166 16.0976 19.6834 16.0976 19.2929 15.7071C18.9024 15.3166 18.9024 14.6834 19.2929 14.2929L25.5858 8L19.2929 1.70711C18.9024 1.31658 18.9024 0.683417 19.2929 0.292893Z" fill="#D6680F"/>
</svg>
