<svg width="12" height="20" viewBox="0 0 12 20" fill="none" xmlns="http://www.w3.org/2000/svg">
<path fill-rule="evenodd" clip-rule="evenodd" d="M6 -0.166748C6.55228 -0.166748 7 0.280967 7 0.833252V19.1666C7 19.7189 6.55228 20.1666 6 20.1666C5.44772 20.1666 5 19.7189 5 19.1666V0.833252C5 0.280967 5.44772 -0.166748 6 -0.166748Z" fill="#61594D" fill-opacity="0.6"/>
<path fill-rule="evenodd" clip-rule="evenodd" d="M1.14717 4.31391C1.88168 3.5794 2.8779 3.16675 3.91667 3.16675H10.1667C10.719 3.16675 11.1667 3.61446 11.1667 4.16675C11.1667 4.71903 10.719 5.16675 10.1667 5.16675H3.91667C3.40834 5.16675 2.92082 5.36868 2.56138 5.72813C2.20193 6.08757 2 6.57508 2 7.08342C2 7.59175 2.20193 8.07926 2.56138 8.4387C2.92082 8.79815 3.40834 9.00008 3.91667 9.00008H8.08333C9.1221 9.00008 10.1183 9.41273 10.8528 10.1472C11.5874 10.8818 12 11.878 12 12.9167C12 13.9555 11.5874 14.9517 10.8528 15.6863C10.1183 16.4208 9.1221 16.8334 8.08333 16.8334H1C0.447715 16.8334 0 16.3857 0 15.8334C0 15.2811 0.447715 14.8334 1 14.8334H8.08333C8.59167 14.8334 9.07918 14.6315 9.43862 14.272C9.79807 13.9126 10 13.4251 10 12.9167C10 12.4084 9.79807 11.9209 9.43862 11.5615C9.07918 11.202 8.59166 11.0001 8.08333 11.0001H3.91667C2.8779 11.0001 1.88168 10.5874 1.14717 9.85292C0.412648 9.1184 0 8.12218 0 7.08342C0 6.04465 0.412648 5.04843 1.14717 4.31391Z" fill="#61594D" fill-opacity="0.6"/>
</svg>
