<svg width="17" height="20" viewBox="0 0 17 20" fill="none" xmlns="http://www.w3.org/2000/svg">
<path fill-rule="evenodd" clip-rule="evenodd" d="M8.5 1.96723C6.77609 1.96723 5.12279 2.64083 3.90381 3.83984C2.68482 5.03886 2 6.66507 2 8.36073C2 10.8343 3.64074 13.2584 5.47595 15.1638C6.37311 16.0953 7.27367 16.8584 7.95105 17.389C8.15778 17.5509 8.34297 17.6906 8.5 17.8062C8.65703 17.6906 8.84222 17.5509 9.04895 17.389C9.72633 16.8584 10.6269 16.0953 11.524 15.1638C13.3593 13.2584 15 10.8343 15 8.36073C15 6.66507 14.3152 5.03886 13.0962 3.83984C11.8772 2.64083 10.2239 1.96723 8.5 1.96723ZM8.5 19.0166C7.9453 19.835 7.94505 19.8348 7.94478 19.8346L7.94217 19.8329L7.93632 19.8291L7.91662 19.8159C7.89999 19.8048 7.87643 19.789 7.8464 19.7685C7.78636 19.7276 7.70041 19.6683 7.59224 19.5914C7.37601 19.4378 7.07042 19.214 6.7052 18.9279C5.97633 18.357 5.00189 17.532 4.02405 16.5168C2.10926 14.5287 0 11.625 0 8.36073C5.96046e-08 6.14332 0.895533 4.01674 2.48959 2.4488C4.08365 0.88086 6.24566 0 8.5 0C10.7543 0 12.9163 0.88086 14.5104 2.4488C16.1045 4.01674 17 6.14332 17 8.36073C17 11.625 14.8907 14.5287 12.976 16.5168C11.9981 17.532 11.0237 18.357 10.2948 18.9279C9.92958 19.214 9.62399 19.4378 9.40776 19.5914C9.29959 19.6683 9.21364 19.7276 9.1536 19.7685C9.12357 19.789 9.10001 19.8048 9.08338 19.8159L9.06368 19.8291L9.05783 19.8329L9.05592 19.8342C9.05564 19.8344 9.0547 19.835 8.5 19.0166ZM8.5 19.0166L9.0547 19.835C8.7188 20.0552 8.28067 20.0549 7.94478 19.8346L8.5 19.0166Z" fill="#61594D" fill-opacity="0.6"/>
<path fill-rule="evenodd" clip-rule="evenodd" d="M9 6.83325C8.17157 6.83325 7.5 7.50482 7.5 8.33325C7.5 9.16168 8.17157 9.83325 9 9.83325C9.82843 9.83325 10.5 9.16168 10.5 8.33325C10.5 7.50482 9.82843 6.83325 9 6.83325ZM5.5 8.33325C5.5 6.40026 7.067 4.83325 9 4.83325C10.933 4.83325 12.5 6.40026 12.5 8.33325C12.5 10.2662 10.933 11.8333 9 11.8333C7.067 11.8333 5.5 10.2662 5.5 8.33325Z" fill="#61594D" fill-opacity="0.6"/>
</svg>
